HIERARCHY
ROOT Hips
{
  OFFSET 279.157 85.6768 304.565
  CHANNELS 6 Xposition Yposition Zposition Zrotation Xrotation Yrotation
  JOINT LeftUpLeg
  {
    OFFSET 8.64259 1.95398 -2.38835
    CHANNELS 3 Zrotation Xrotation Yrotation
    JOINT LeftLeg
    {
      OFFSET 43.7702 0 0
      CHANNELS 3 Zrotation Xrotation Yrotation
      JOINT LeftFoot
      {
        OFFSET 40.6238 0 0
        CHANNELS 3 Zrotation Xrotation Yrotation
        JOINT LeftToeBase
        {
          OFFSET 12.7242 0 0
          CHANNELS 3 Zrotation Xrotation Yrotation
          End Site
          {
            OFFSET 0 0 0
          }
        }
      }
    }
  }
  JOINT RightUpLeg
  {
    OFFSET -8.2249 1.95398 -2.59336
    CHANNELS 3 Zrotation Xrotation Yrotation
    JOINT RightLeg
    {
      OFFSET 43.5653 0 0
      CHANNELS 3 Zrotation Xrotation Yrotation
      JOINT RightFoot
      {
        OFFSET 40.6238 0 0
        CHANNELS 3 Zrotation Xrotation Yrotation
        JOINT RightToeBase
        {
          OFFSET 12.7242 0 0
          CHANNELS 3 Zrotation Xrotation Yrotation
          End Site
          {
            OFFSET 0 0 0
          }
        }
      }
    }
  }
  JOINT Spine
  {
    OFFSET 0.165834 0.87714 6.61349
    CHANNELS 3 Zrotation Xrotation Yrotation
    JOINT Spine1
    {
      OFFSET 7.38963 1.71661e-005 0
      CHANNELS 3 Zrotation Xrotation Yrotation
      JOINT Spine2
      {
        OFFSET 11.9445 1.14441e-005 0
        CHANNELS 3 Zrotation Xrotation Yrotation
        JOINT Spine3
        {
          OFFSET 14.7254 4.19617e-005 0
          CHANNELS 3 Zrotation Xrotation Yrotation
          JOINT Spine4
          {
            OFFSET 10.9679 0 0
            CHANNELS 3 Zrotation Xrotation Yrotation
            JOINT RightShoulder
            {
              OFFSET 2.46616 -1.6653 3.69651
              CHANNELS 3 Zrotation Xrotation Yrotation
              JOINT RightArm
              {
                OFFSET 13.0012 0 0
                CHANNELS 3 Zrotation Xrotation Yrotation
                JOINT RightForeArm
                {
                  OFFSET 28.7848 1.52588e-005 0
                  CHANNELS 3 Zrotation Xrotation Yrotation
                  JOINT RightHand
                  {
                    OFFSET 26.5688 1.52588e-005 0
                    CHANNELS 3 Zrotation Xrotation Yrotation
                    End Site
                    {
                      OFFSET 0 0 0
                    }
                  }
                }
              }
            }
            JOINT LeftShoulder
            {
              OFFSET 2.38034 -1.29275 -3.7523
              CHANNELS 3 Zrotation Xrotation Yrotation
              JOINT LeftArm
              {
                OFFSET 16.3182 6.10351e-005 0
                CHANNELS 3 Zrotation Xrotation Yrotation
                JOINT LeftForeArm
                {
                  OFFSET 27.0901 0 0
                  CHANNELS 3 Zrotation Xrotation Yrotation
                  JOINT LeftHand
                  {
                    OFFSET 24.5451 1.52588e-005 0
                    CHANNELS 3 Zrotation Xrotation Yrotation
                    End Site
                    {
                      OFFSET 0 0 0
                    }
                  }
                }
              }
            }
            JOINT Neck
            {
              OFFSET 5.0226 -0.0266342 0
              CHANNELS 3 Zrotation Xrotation Yrotation
              JOINT Head
              {
                OFFSET 6.69364 2.86102e-005 0
                CHANNELS 3 Zrotation Xrotation Yrotation
                End Site
                {
                  OFFSET 0 0 0
                }
              }
            }
          }
        }
      }
    }
  }
}
MOTION
Frames:	13
Frame Time:	0.0416667
28.7022 49.0167 3.35161 -68.7861 -83.6533 -68.0894 -26.2949 77.8613 -28.5365 -126.545 2.1635 7.48999 85.7268 19.7781 3.92877 29.7559 -1.84325 10.4174 37.62 78.0479 -154.763 -129.36 -16.5349 -5.41523 81.7991 -18.7833 -8.39238 30.3421 -0.661194 1.10666 0.860435 13.2742 -90.2984 0.327618 1.60523 -0.508964 -11.3425 1.58128 -0.579146 -33.8856 1.68396 -0.00286414 -13.873 1.68396 -0.00286242 84.9969 -22.0655 -121.139 6.78124 -10.4809 -52.9366 7.73157 -43.3025 -7.931 -42.6827 -9.15173 14.3838 -95.7043 -38.6181 66.3578 -7.06182 7.94902 -72.6018 -8.14908 51.6662 -1.05676 13.4907 2.86343 16.5988 48.8653 -1.26525 0.221246 -6.51617 -1.29005 -0.265009 
28.5182 49.0415 3.26153 -66.235 -82.6843 -64.6453 -18.7783 77.6968 -35.2953 -126.748 2.4699 7.39901 85.448 19.6127 3.92346 29.9725 -1.79318 10.8025 41.1994 76.7423 -157.372 -129.056 -16.231 -5.46039 81.8767 -18.7386 -8.32537 30.0785 -0.554035 0.936109 0.999528 13.2069 -90.3529 0.46292 1.86216 -0.606936 -11.2069 1.83364 -0.688335 -33.7528 1.95845 -0.0190251 -13.7401 1.95845 -0.0190072 85.0455 -21.7904 -121.218 6.45407 -10.5344 -52.9369 7.9863 -42.9623 -7.9046 -42.108 -9.18211 14.9122 -95.6523 -38.5718 66.4264 -7.47118 7.79441 -72.7125 -7.82818 52.6332 -1.12743 12.8047 2.61311 15.7035 48.6477 -0.942479 0.982685 -5.88526 -1.38198 -1.31085 
28.5687 49.0733 3.24801 -65.693 -82.64 -64.0493 -18.654 77.6759 -35.386 -126.595 2.37341 7.41457 85.7784 19.8398 3.72875 29.7064 -2.00978 10.9287 41.0104 76.7074 -157.206 -128.991 -16.3859 -5.46153 81.7298 -18.6118 -8.27294 30.2002 -0.603207 1.01119 1.00442 13.218 -90.3611 0.44079 1.86888 -0.622089 -11.229 1.8397 -0.703756 -33.7749 1.96941 -0.0314356 -13.7623 1.96941 -0.0314278 85.2007 -21.7298 -120.925 7.13848 -10.1645 -53.0436 7.35415 -42.911 -8.10842 -41.64 -8.89108 14.3527 -95.6609 -38.5548 66.4054 -7.46556 7.62335 -72.8563 -7.81178 53.2174 -0.97061 14.1925 2.74162 14.812 48.9366 -1.03124 0.679186 -6.29466 -1.31766 -0.68942 
28.5826 49.0444 3.25295 -66.2953 -82.6067 -64.7114 -18.8672 77.5642 -35.1002 -126.628 2.35668 7.41558 84.8893 19.4604 4.50929 28.911 -1.22866 5.63558 40.7907 76.797 -156.912 -129.045 -16.4041 -5.45725 81.7757 -18.6708 -8.33576 29.9894 -0.525176 0.943548 0.989659 13.2316 -90.3593 0.41359 1.84016 -0.619093 -11.2562 1.81114 -0.699517 -33.8018 1.94112 -0.0372373 -13.7892 1.94112 -0.0372302 85.1933 -21.6928 -120.965 6.35941 -10.5235 -53.2907 7.81569 -43.1122 -8.06375 -42.4708 -9.26732 14.907 -95.6985 -38.8641 66.4626 -7.19568 7.55183 -72.953 -7.90069 52.9127 -0.976192 13.2641 2.58167 14.9067 49.0793 -0.881819 0.744363 -6.60317 -1.21337 -0.702438 
28.5243 48.9272 3.25375 -66.0183 -82.6702 -64.5418 -18.8615 77.5181 -35.1134 -126.718 2.36694 7.43763 85.8436 19.933 3.70915 29.1387 -2.30194 10.6318 39.8546 76.7536 -155.875 -129.215 -16.1399 -5.45123 81.7462 -18.6344 -8.33034 30.2661 -0.615022 0.923147 0.992343 13.2145 -90.3546 0.447766 1.8472 -0.610676 -11.2221 1.81852 -0.69141 -33.7677 1.9453 -0.027081 -13.7551 1.9453 -0.0270889 85.4173 -21.5994 -120.545 7.33662 -10.3952 -53.3992 7.56386 -43.6659 -7.8882 -42.631 -9.27945 14.7356 -95.6647 -38.7545 66.4765 -7.23645 7.67247 -72.9245 -7.84529 53.0455 -1.16436 12.48 2.53169 15.5479 48.6469 -0.921188 0.994495 -6.16932 -1.37389 -1.13236 
28.51 48.7873 3.283 -66.0738 -82.7531 -64.695 -18.8701 77.4261 -35.2265 -126.92 2.29064 7.443 85.5925 19.7369 3.88155 29.2722 -2.01521 9.83031 38.9642 76.7669 -155.039 -129.429 -16.0468 -5.44859 81.7782 -18.6341 -8.29093 30.1831 -0.58597 0.911188 0.980154 13.1851 -90.3458 0.506415 1.82607 -0.595905 -11.1634 1.79807 -0.675716 -33.7089 1.92071 -0.0193456 -13.6962 1.92071 -0.0193413 85.2916 -21.8127 -120.675 6.88533 -10.7434 -53.1743 7.57971 -43.3351 -8.10601 -42.3417 -9.20313 14.7585 -95.6433 -38.8549 66.5506 -7.3239 7.77073 -72.7911 -8.16701 53.1489 -0.99212 12.7476 2.62162 15.8564 48.6125 -1.03141 0.77065 -6.44376 -1.36139 -0.805225 
28.5527 48.7472 3.31015 -66.2034 -82.8606 -64.883 -19.2464 77.4729 -34.8662 -126.959 2.4708 7.44107 86.1922 20.041 3.36156 29.764 -2.48467 13.0662 38.4505 76.8931 -154.654 -129.51 -16.2281 -5.46075 81.7536 -18.6487 -8.38109 30.3351 -0.628708 0.842644 0.966993 13.1914 -90.3634 0.493979 1.7933 -0.631165 -11.1759 1.7638 -0.709495 -33.721 1.90006 -0.062832 -13.7083 1.90006 -0.0628353 85.4484 -21.5493 -120.511 7.53295 -10.5398 -53.087 7.09871 -43.4787 -8.2986 -41.7086 -8.95281 14.4072 -95.6488 -38.9702 66.5858 -7.11218 7.94314 -73.0658 -8.44553 52.6474 -0.736377 12.7209 2.64516 16.0478 48.6317 -0.948948 1.20018 -5.98799 -1.50915 -1.34556 
28.5256 48.7232 3.26512 -66.5135 -82.6769 -65.1638 -18.7634 77.4456 -35.2708 -126.938 2.47924 7.45993 86.1673 20.0928 3.43345 29.7775 -2.54855 13.3765 38.4192 76.7579 -154.354 -129.466 -16.164 -5.46146 81.647 -18.6043 -8.42755 30.3029 -0.620119 0.860974 0.988436 13.1884 -90.3444 0.499784 1.84318 -0.592226 -11.17 1.81534 -0.672802 -33.7157 1.93592 -0.0106884 -13.703 1.93593 -0.0107022 85.4118 -21.6345 -120.534 7.47402 -10.5818 -53.1715 7.14349 -43.6012 -8.25234 -42.2268 -9.1489 14.6319 -95.5367 -38.7767 66.6974 -7.17312 7.96229 -73.1225 -8.36798 52.7935 -0.815342 12.7878 2.68185 16.2437 49.0714 -1.1987 0.603851 -6.61065 -1.43558 -0.520469 
28.5592 48.7413 3.2754 -66.7811 -82.6632 -65.2453 -17.7409 77.3896 -36.3226 -127.11 2.17422 7.40245 85.3125 19.4691 3.89065 30.3883 -1.57004 11.0268 39.5317 76.6494 -155.574 -129.433 -16.0353 -5.46874 81.8525 -18.6635 -8.31627 30.2246 -0.625596 1.13567 0.993791 13.1871 -90.3632 0.502642 1.84681 -0.628668 -11.1672 1.81736 -0.709366 -33.7129 1.95035 -0.0443511 -13.7002 1.95034 -0.0443639 85.3338 -21.5252 -120.774 6.57752 -10.913 -53.3187 8.02467 -43.2275 -8.04836 -42.2133 -9.3678 15.3656 -95.5949 -38.8412 66.6255 -7.76656 7.80331 -72.6223 -7.58227 53.0266 -1.53756 13.1855 2.85529 16.9486 48.6917 -0.929648 1.07354 -6.00104 -1.43257 -1.03479 
28.5342 48.6207 3.23131 -68.4773 -82.9346 -66.9815 -18.2278 77.5933 -36.0772 -127.13 2.39149 7.45547 85.5932 19.8628 4.06516 30.4527 -1.98001 12.9566 39.2462 76.7969 -155.436 -129.633 -16.0616 -5.4676 81.7541 -18.6357 -8.33913 30.1048 -0.58031 1.08722 0.981553 13.2052 -90.3704 0.466588 1.81979 -0.642905 -11.2033 1.78973 -0.72241 -33.7486 1.92884 -0.0660713 -13.736 1.92884 -0.0660722 85.2876 -21.5601 -120.85 7.13176 -10.7669 -52.9374 7.27638 -43.3533 -8.36278 -41.7134 -8.99797 14.5653 -95.6424 -38.9533 66.5899 -7.63655 7.81242 -72.643 -7.90996 53.4575 -1.23124 14.0119 2.89324 16.1366 48.5838 -0.948196 1.04693 -6.31202 -1.42673 -1.14285 
28.574 48.5258 3.28181 -69.3593 -83.1762 -67.6817 -17.3153 77.7399 -37.1234 -127.359 2.27137 7.41038 85.9035 19.9363 3.67635 30.239 -2.22663 13.3609 40.0269 76.8752 -156.396 -129.747 -15.9929 -5.48564 81.9179 -18.7018 -8.31473 30.2781 -0.613001 0.871537 0.974455 13.1917 -90.3981 0.493855 1.79525 -0.698617 -11.1761 1.76277 -0.776976 -33.7211 1.92219 -0.126594 -13.7084 1.92218 -0.126595 85.1043 -21.7225 -121.137 7.14221 -10.8017 -52.5691 7.21561 -43.6309 -8.51896 -42.078 -9.21262 14.9217 -95.6559 -38.9609 66.5706 -7.56193 8.05725 -72.3817 -7.94672 53.2705 -1.27579 13.7934 2.87478 16.2888 48.1993 -0.86303 1.20098 -6.14278 -1.4128 -1.62348 
28.5341 48.4713 3.29041 -69.9143 -82.9987 -68.1343 -16.512 77.7965 -37.6694 -127.421 2.44467 7.41661 86.5941 20.4523 3.44705 29.7311 -2.95323 14.8654 40.4105 76.728 -156.553 -129.811 -15.922 -5.48626 81.8821 -18.6676 -8.36131 30.1588 -0.587991 0.998403 1.01089 13.1945 -90.3917 0.488032 1.87033 -0.682723 -11.1818 1.83848 -0.764394 -33.7277 1.98901 -0.0888304 -13.715 1.98901 -0.0888502 85.2268 -21.9124 -120.749 7.63854 -10.6776 -52.7826 6.86318 -43.7585 -8.59825 -42.1119 -9.09962 14.5326 -95.4564 -38.4892 66.7204 -7.89142 8.10965 -72.6719 -8.12021 53.133 -0.835441 13.6795 2.74071 15.5087 48.5979 -1.07241 0.770394 -6.30821 -1.38981 -1.02771 
28.5188 48.4939 3.26374 -68.3464 -83.0626 -66.6052 -16.4957 77.6512 -37.825 -127.339 2.52847 7.40623 86.5425 20.5196 3.58512 29.6322 -3.01809 14.8405 39.8907 76.6357 -156.128 -129.785 -15.8849 -5.49624 81.9328 -18.6568 -8.25352 30.1582 -0.585243 0.976495 0.991615 13.1743 -90.3716 0.528233 1.83932 -0.6461 -11.1416 1.8091 -0.726452 -33.6871 1.94843 -0.0632342 -13.6745 1.94843 -0.063242 84.8844 -22.2817 -121.237 7.46382 -10.5044 -52.43 6.59392 -43.9695 -8.92356 -41.7303 -8.85621 14.0081 -95.2221 -38.2562 67.0222 -8.19576 8.11474 -72.5684 -8.07419 53.4813 -0.818011 13.7833 2.73144 15.3204 49.0296 -1.13319 0.309915 -6.68007 -1.20948 -0.444084 
